<?xml version="1.0" encoding="UTF-8"?>
<svg id="Layer_1" xmlns="http://www.w3.org/2000/svg" version="1.1" viewBox="0 0 171.2 34.1">
  <!-- Generator: Adobe Illustrator 29.3.1, SVG Export Plug-In . SVG Version: 2.1.0 Build 151)  -->
  <defs>
    <style>
      .st0 {
        isolation: isolate;
      }

      .st1 {
        fill: #001f5b;
      }

      .st2 {
        fill: #b02028;
      }
    </style>
  </defs>
  <g>
    <path class="st1" d="M18,33.6l-6.5-12.5h-4.5v12.5H0V.6h12.8c8.2,0,10.9,4.4,10.9,9.3s-2.3,7.9-5.7,9.4l7.5,14.3h-7.6.1ZM16.5,10.6c0-3.1-2-4.3-5.7-4.3h-3.9v9.3h3.6c3.3,0,6-1.2,6-5Z"/>
    <path class="st1" d="M59.5,33.6h-7.7l-2.7-8h-11l-2.6,8h-7.2L39.1.6h8.7l11.7,33ZM43.4,7.2l-4.1,12.8h8.3l-4.1-12.8h-.2,0Z"/>
    <path class="st1" d="M63.4.6h11.6c11.4,0,16.4,6.1,16.4,16s-5.3,17-17.1,17h-10.8V.6h0ZM84.1,16.9c0-8.2-3.2-10.7-9.7-10.7h-4v21.7h3.5c7.6,0,10.2-4.1,10.2-11Z"/>
    <path class="st1" d="M94.7,17.2c0-9.8,5.4-17.2,16.1-17.2s15.1,7.4,15.1,16.6-5.1,17.5-15.9,17.5-15.3-7.1-15.3-16.9ZM118.7,17c0-7.6-3-11.1-8-11.1s-8.7,3.5-8.7,11.2,3.2,11.1,8.4,11.1,8.3-3.1,8.3-11.2Z"/>
    <path class="st1" d="M137.4,10.3v23.3h-6.4V.6h8.4l12.5,23.4V.6h6.4v33h-8.1l-12.7-23.3h0Z"/>
  </g>
  <g id="SPRUCE" class="st0">
    <g class="st0">
      <path class="st2" d="M171.2,32.6c0,.6-.3.9-.9.9s-.9-.3-.9-.9.3-.9.9-.9.9.3.9.9Z"/>
      <path class="st2" d="M167.1,30.3c-2.8,0-4.3-1.5-4.3-4.1s1.1-3.2,3-3.3l.3,2.1c-1,0-1.6.4-1.6,1.3s.4,1.6,2.3,1.6,2.5-.6,2.5-1.6-.4-1.4-1.5-1.5l.4-2c2,.3,2.9,1.7,2.9,3.6,0,2.7-1.7,3.9-4.1,3.9h.1Z"/>
      <path class="st2" d="M167,21.7c-2.6,0-4.2-1.3-4.2-4.1s1.7-3.9,4.1-3.9,4.3,1.2,4.3,4.1-1.8,3.9-4.2,3.9h0ZM166.9,16.1c-1.8,0-2.4.5-2.4,1.5s.7,1.6,2.4,1.6,2.5-.4,2.5-1.6-.6-1.6-2.5-1.6h0Z"/>
      <path class="st2" d="M171,12.1h-8v-2h.8c-.5-.7-.9-1.5-.9-2.5s.3-1.7,1-2c-.6-.6-1-1.4-1-2.5,0-1.6.9-2.4,2.7-2.4h5.5v2.3h-5.2c-.8,0-1.2.2-1.2.9s.2,1,.6,1.3h5.8v2.3h-5.2c-.8,0-1.2.2-1.2.9s.3,1.1.6,1.4h5.7v2.3h0Z"/>
    </g>
  </g>
</svg>