<?xml version="1.0" encoding="UTF-8"?>
<svg id="Layer_1" xmlns="http://www.w3.org/2000/svg" version="1.1" viewBox="0 0 448 512">
  <!-- Generator: Adobe Illustrator 29.3.1, SVG Export Plug-In . SVG Version: 2.1.0 Build 151)  -->
  <defs>
    <style>
      .st0 {
        fill: #48acf0;
      }
    </style>
  </defs>
  <path class="st0" d="M64,32C28.7,32,0,60.7,0,96v320c0,35.3,28.7,64,64,64h98.2v-145.8h-52.8v-78.2h52.8v-33.7c0-87.1,39.4-127.5,125-127.5s44.2,3.2,55.7,6.4v70.8c-6-.6-16.5-1-29.6-1-42,0-58.2,15.9-58.2,57.2v27.8h83.6l-14.4,78.2h-69.3v145.8h129c35.3,0,64-28.7,64-64V96c0-35.3-28.7-64-64-64H64Z"/>
</svg>